<svg width="800" height="800" viewBox="0 0 800 800" fill="none" xmlns="http://www.w3.org/2000/svg">
<mask id="mask0_3032_3" style="mask-type:luminance" maskUnits="userSpaceOnUse" x="90" y="232" width="621" height="336">
<path d="M710.607 232H90V567.02H710.607V232Z" fill="white"/>
</mask>
<g mask="url(#mask0_3032_3)">
<path d="M112.533 237.513C112.533 237.513 94.8984 237.513 94.8984 257.36V541.653C94.8984 541.653 94.8984 561.5 112.533 561.5H688.073C688.073 561.5 705.708 561.5 705.708 541.653V257.36C705.708 257.36 705.708 237.513 688.073 237.513H112.533Z" stroke="#9AA0A6" stroke-width="1.8"/>
</g>
<mask id="mask1_3032_3" style="mask-type:luminance" maskUnits="userSpaceOnUse" x="90" y="232" width="621" height="336">
<path d="M710.607 232H90V567.02H710.607V232Z" fill="white"/>
</mask>
<g mask="url(#mask1_3032_3)">
<path d="M242.631 473.695C242.631 473.695 239.104 473.695 239.104 477.658V512.109C239.104 512.109 239.104 516.078 242.631 516.078H556.48C556.48 516.078 560.007 516.078 560.007 512.109V477.658C560.007 477.658 560.007 473.695 556.48 473.695H242.631Z" fill="#9AA0A6"/>
</g>
<mask id="mask2_3032_3" style="mask-type:luminance" maskUnits="userSpaceOnUse" x="90" y="232" width="621" height="336">
<path d="M710.607 232H90V567.02H710.607V232Z" fill="white"/>
</mask>
<g mask="url(#mask2_3032_3)">
<path d="M582.361 473.695C582.361 473.695 578.834 473.695 578.834 477.658V512.109C578.834 512.109 578.834 516.078 582.361 516.078H663.188C663.188 516.078 666.715 516.078 666.715 512.109V477.658C666.715 477.658 666.715 473.695 663.188 473.695H582.361Z" fill="#9AA0A6"/>
</g>
<mask id="mask3_3032_3" style="mask-type:luminance" maskUnits="userSpaceOnUse" x="90" y="232" width="621" height="336">
<path d="M710.607 232H90V567.02H710.607V232Z" fill="white"/>
</mask>
<g mask="url(#mask3_3032_3)">
<path d="M136.668 473.695C136.668 473.695 133.141 473.695 133.141 477.658V512.109C133.141 512.109 133.141 516.078 136.668 516.078H217.495C217.495 516.078 221.022 516.078 221.022 512.109V477.658C221.022 477.658 221.022 473.695 217.495 473.695H136.668Z" fill="#9AA0A6"/>
</g>
<mask id="mask4_3032_3" style="mask-type:luminance" maskUnits="userSpaceOnUse" x="90" y="232" width="621" height="336">
<path d="M710.607 232H90V567.02H710.607V232Z" fill="white"/>
</mask>
<g mask="url(#mask4_3032_3)">
<path d="M299.879 410.11C299.879 410.11 296.357 410.11 296.357 414.074V448.525C296.357 448.525 296.357 452.494 299.879 452.494H330.49C330.49 452.494 334.017 452.494 334.017 448.525V414.074C334.017 414.074 334.017 410.11 330.49 410.11H299.879Z" fill="#9AA0A6"/>
</g>
<mask id="mask5_3032_3" style="mask-type:luminance" maskUnits="userSpaceOnUse" x="90" y="232" width="621" height="336">
<path d="M710.607 232H90V567.02H710.607V232Z" fill="white"/>
</mask>
<g mask="url(#mask5_3032_3)">
<path d="M243.381 410.11C243.381 410.11 239.854 410.11 239.854 414.074V448.525C239.854 448.525 239.854 452.494 243.381 452.494H273.992C273.992 452.494 277.514 452.494 277.514 448.525V414.074C277.514 414.074 277.514 410.11 273.992 410.11H243.381Z" fill="#9AA0A6"/>
</g>
<mask id="mask6_3032_3" style="mask-type:luminance" maskUnits="userSpaceOnUse" x="90" y="232" width="621" height="336">
<path d="M710.607 232H90V567.02H710.607V232Z" fill="white"/>
</mask>
<g mask="url(#mask6_3032_3)">
<path d="M136.668 410.11C136.668 410.11 133.141 410.11 133.141 414.074V448.525C133.141 448.525 133.141 452.494 136.668 452.494H217.495C217.495 452.494 221.022 452.494 221.022 448.525V414.074C221.022 414.074 221.022 410.11 217.495 410.11H136.668Z" fill="#9AA0A6"/>
</g>
<mask id="mask7_3032_3" style="mask-type:luminance" maskUnits="userSpaceOnUse" x="90" y="232" width="621" height="336">
<path d="M710.607 232H90V567.02H710.607V232Z" fill="white"/>
</mask>
<g mask="url(#mask7_3032_3)">
<path d="M356.377 410.11C356.377 410.11 352.85 410.11 352.85 414.074V448.525C352.85 448.525 352.85 452.494 356.377 452.494H386.988C386.988 452.494 390.509 452.494 390.509 448.525V414.074C390.509 414.074 390.509 410.11 386.988 410.11H356.377Z" fill="#9AA0A6"/>
</g>
<mask id="mask8_3032_3" style="mask-type:luminance" maskUnits="userSpaceOnUse" x="90" y="232" width="621" height="336">
<path d="M710.607 232H90V567.02H710.607V232Z" fill="white"/>
</mask>
<g mask="url(#mask8_3032_3)">
<path d="M412.874 410.11C412.874 410.11 409.353 410.11 409.353 414.074V448.525C409.353 448.525 409.353 452.494 412.874 452.494H443.485C443.485 452.494 447.012 452.494 447.012 448.525V414.074C447.012 414.074 447.012 410.11 443.485 410.11H412.874Z" fill="#9AA0A6"/>
</g>
<mask id="mask9_3032_3" style="mask-type:luminance" maskUnits="userSpaceOnUse" x="90" y="232" width="621" height="336">
<path d="M710.607 232H90V567.02H710.607V232Z" fill="white"/>
</mask>
<g mask="url(#mask9_3032_3)">
<path d="M469.366 410.11C469.366 410.11 465.839 410.11 465.839 414.074V448.525C465.839 448.525 465.839 452.494 469.366 452.494H499.977C499.977 452.494 503.498 452.494 503.498 448.525V414.074C503.498 414.074 503.498 410.11 499.977 410.11H469.366Z" fill="#9AA0A6"/>
</g>
<mask id="mask10_3032_3" style="mask-type:luminance" maskUnits="userSpaceOnUse" x="90" y="232" width="621" height="336">
<path d="M710.607 232H90V567.02H710.607V232Z" fill="white"/>
</mask>
<g mask="url(#mask10_3032_3)">
<path d="M525.863 410.11C525.863 410.11 522.342 410.11 522.342 414.074V448.525C522.342 448.525 522.342 452.494 525.863 452.494H556.474C556.474 452.494 560.001 452.494 560.001 448.525V414.074C560.001 414.074 560.001 410.11 556.474 410.11H525.863Z" fill="#9AA0A6"/>
</g>
<mask id="mask11_3032_3" style="mask-type:luminance" maskUnits="userSpaceOnUse" x="90" y="232" width="621" height="336">
<path d="M710.607 232H90V567.02H710.607V232Z" fill="white"/>
</mask>
<g mask="url(#mask11_3032_3)">
<path d="M582.361 410.11C582.361 410.11 578.834 410.11 578.834 414.074V448.525C578.834 448.525 578.834 452.494 582.361 452.494H663.945C663.945 452.494 667.466 452.494 667.466 448.525V414.074C667.466 414.074 667.466 410.11 663.945 410.11H582.361Z" fill="#9AA0A6"/>
</g>
<mask id="mask12_3032_3" style="mask-type:luminance" maskUnits="userSpaceOnUse" x="90" y="232" width="621" height="336">
<path d="M710.607 232H90V567.02H710.607V232Z" fill="white"/>
</mask>
<g mask="url(#mask12_3032_3)">
<path d="M274.771 346.526C274.771 346.526 271.244 346.526 271.244 350.489V384.94C271.244 384.94 271.244 388.909 274.771 388.909H305.382C305.382 388.909 308.909 388.909 308.909 384.94V350.489C308.909 350.489 308.909 346.526 305.382 346.526H274.771Z" fill="#9AA0A6"/>
</g>
<mask id="mask13_3032_3" style="mask-type:luminance" maskUnits="userSpaceOnUse" x="90" y="232" width="621" height="336">
<path d="M710.607 232H90V567.02H710.607V232Z" fill="white"/>
</mask>
<g mask="url(#mask13_3032_3)">
<path d="M218.273 346.526C218.273 346.526 214.746 346.526 214.746 350.489V384.94C214.746 384.94 214.746 388.909 218.273 388.909H248.884C248.884 388.909 252.411 388.909 252.411 384.94V350.489C252.411 350.489 252.411 346.526 248.884 346.526H218.273Z" fill="#9AA0A6"/>
</g>
<mask id="mask14_3032_3" style="mask-type:luminance" maskUnits="userSpaceOnUse" x="90" y="232" width="621" height="336">
<path d="M710.607 232H90V567.02H710.607V232Z" fill="white"/>
</mask>
<g mask="url(#mask14_3032_3)">
<path d="M136.668 346.526C136.668 346.526 133.141 346.526 133.141 350.489V384.94C133.141 384.94 133.141 388.909 136.668 388.909H192.387C192.387 388.909 195.914 388.909 195.914 384.94V350.489C195.914 350.489 195.914 346.526 192.387 346.526H136.668Z" fill="#9AA0A6"/>
</g>
<mask id="mask15_3032_3" style="mask-type:luminance" maskUnits="userSpaceOnUse" x="90" y="232" width="621" height="336">
<path d="M710.607 232H90V567.02H710.607V232Z" fill="white"/>
</mask>
<g mask="url(#mask15_3032_3)">
<path d="M331.262 346.526C331.262 346.526 327.735 346.526 327.735 350.489V384.94C327.735 384.94 327.735 388.909 331.262 388.909H361.873C361.873 388.909 365.4 388.909 365.4 384.94V350.489C365.4 350.489 365.4 346.526 361.873 346.526H331.262Z" fill="#9AA0A6"/>
</g>
<mask id="mask16_3032_3" style="mask-type:luminance" maskUnits="userSpaceOnUse" x="90" y="232" width="621" height="336">
<path d="M710.607 232H90V567.02H710.607V232Z" fill="white"/>
</mask>
<g mask="url(#mask16_3032_3)">
<path d="M387.76 346.526C387.76 346.526 384.238 346.526 384.238 350.489V384.94C384.238 384.94 384.238 388.909 387.76 388.909H418.371C418.371 388.909 421.898 388.909 421.898 384.94V350.489C421.898 350.489 421.898 346.526 418.371 346.526H387.76Z" fill="#9AA0A6"/>
</g>
<mask id="mask17_3032_3" style="mask-type:luminance" maskUnits="userSpaceOnUse" x="90" y="232" width="621" height="336">
<path d="M710.607 232H90V567.02H710.607V232Z" fill="white"/>
</mask>
<g mask="url(#mask17_3032_3)">
<path d="M444.257 346.526C444.257 346.526 440.73 346.526 440.73 350.489V384.94C440.73 384.94 440.73 388.909 444.257 388.909H474.868C474.868 388.909 478.39 388.909 478.39 384.94V350.489C478.39 350.489 478.39 346.526 474.868 346.526H444.257Z" fill="#9AA0A6"/>
</g>
<mask id="mask18_3032_3" style="mask-type:luminance" maskUnits="userSpaceOnUse" x="90" y="232" width="621" height="336">
<path d="M710.607 232H90V567.02H710.607V232Z" fill="white"/>
</mask>
<g mask="url(#mask18_3032_3)">
<path d="M500.755 346.526C500.755 346.526 497.233 346.526 497.233 350.489V384.94C497.233 384.94 497.233 388.909 500.755 388.909H531.366C531.366 388.909 534.893 388.909 534.893 384.94V350.489C534.893 350.489 534.893 346.526 531.366 346.526H500.755Z" fill="#9AA0A6"/>
</g>
<mask id="mask19_3032_3" style="mask-type:luminance" maskUnits="userSpaceOnUse" x="90" y="232" width="621" height="336">
<path d="M710.607 232H90V567.02H710.607V232Z" fill="white"/>
</mask>
<g mask="url(#mask19_3032_3)">
<path d="M557.253 346.526C557.253 346.526 553.726 346.526 553.726 350.489V384.94C553.726 384.94 553.726 388.909 557.253 388.909H587.864C587.864 388.909 591.385 388.909 591.385 384.94V350.489C591.385 350.489 591.385 346.526 587.864 346.526H557.253Z" fill="#9AA0A6"/>
</g>
<mask id="mask20_3032_3" style="mask-type:luminance" maskUnits="userSpaceOnUse" x="90" y="232" width="621" height="336">
<path d="M710.607 232H90V567.02H710.607V232Z" fill="white"/>
</mask>
<g mask="url(#mask20_3032_3)">
<path d="M613.75 346.526C613.75 346.526 610.229 346.526 610.229 350.489V384.94C610.229 384.94 610.228 388.909 613.75 388.909H663.945C663.945 388.909 667.472 388.909 667.472 384.94V350.489C667.472 350.489 667.472 346.526 663.945 346.526H613.75Z" fill="#9AA0A6"/>
</g>
<mask id="mask21_3032_3" style="mask-type:luminance" maskUnits="userSpaceOnUse" x="90" y="232" width="621" height="336">
<path d="M710.607 232H90V567.02H710.607V232Z" fill="white"/>
</mask>
<g mask="url(#mask21_3032_3)">
<path d="M411.475 282.935C411.475 282.935 407.953 282.935 407.953 286.904V321.355C407.953 321.355 407.953 325.325 411.475 325.325H442.091C442.091 325.325 445.613 325.325 445.613 321.355V286.904C445.613 286.904 445.613 282.935 442.091 282.935H411.475Z" fill="#9AA0A6"/>
</g>
<mask id="mask22_3032_3" style="mask-type:luminance" maskUnits="userSpaceOnUse" x="90" y="232" width="621" height="336">
<path d="M710.607 232H90V567.02H710.607V232Z" fill="white"/>
</mask>
<g mask="url(#mask22_3032_3)">
<path d="M356.513 282.935C356.513 282.935 352.991 282.935 352.991 286.904V321.355C352.991 321.355 352.991 325.325 356.513 325.325H387.129C387.129 325.325 390.651 325.325 390.651 321.355V286.904C390.651 286.904 390.651 282.935 387.129 282.935H356.513Z" fill="#9AA0A6"/>
</g>
<mask id="mask23_3032_3" style="mask-type:luminance" maskUnits="userSpaceOnUse" x="90" y="232" width="621" height="336">
<path d="M710.607 232H90V567.02H710.607V232Z" fill="white"/>
</mask>
<g mask="url(#mask23_3032_3)">
<path d="M301.549 282.935C301.549 282.935 298.022 282.935 298.022 286.904V321.355C298.022 321.355 298.022 325.325 301.549 325.325H332.16C332.16 325.325 335.682 325.325 335.682 321.355V286.904C335.682 286.904 335.682 282.935 332.16 282.935H301.549Z" fill="#9AA0A6"/>
</g>
<mask id="mask24_3032_3" style="mask-type:luminance" maskUnits="userSpaceOnUse" x="90" y="232" width="621" height="336">
<path d="M710.607 232H90V567.02H710.607V232Z" fill="white"/>
</mask>
<g mask="url(#mask24_3032_3)">
<path d="M246.592 282.935C246.592 282.935 243.065 282.935 243.065 286.904V321.355C243.065 321.355 243.065 325.325 246.592 325.325H277.203C277.203 325.325 280.725 325.325 280.725 321.355V286.904C280.725 286.904 280.725 282.935 277.203 282.935H246.592Z" fill="#9AA0A6"/>
</g>
<mask id="mask25_3032_3" style="mask-type:luminance" maskUnits="userSpaceOnUse" x="90" y="232" width="621" height="336">
<path d="M710.607 232H90V567.02H710.607V232Z" fill="white"/>
</mask>
<g mask="url(#mask25_3032_3)">
<path d="M191.631 282.935C191.631 282.935 188.104 282.935 188.104 286.904V321.355C188.104 321.355 188.104 325.325 191.631 325.325H222.241C222.241 325.325 225.768 325.325 225.768 321.355V286.904C225.768 286.904 225.769 282.935 222.241 282.935H191.631Z" fill="#9AA0A6"/>
</g>
<mask id="mask26_3032_3" style="mask-type:luminance" maskUnits="userSpaceOnUse" x="90" y="232" width="621" height="336">
<path d="M710.607 232H90V567.02H710.607V232Z" fill="white"/>
</mask>
<g mask="url(#mask26_3032_3)">
<path d="M136.668 282.935C136.668 282.935 133.141 282.935 133.141 286.904V321.355C133.141 321.355 133.141 325.325 136.668 325.325H167.279C167.279 325.325 170.806 325.325 170.806 321.355V286.904C170.806 286.904 170.806 282.935 167.279 282.935H136.668Z" fill="#9AA0A6"/>
</g>
<mask id="mask27_3032_3" style="mask-type:luminance" maskUnits="userSpaceOnUse" x="90" y="232" width="621" height="336">
<path d="M710.607 232H90V567.02H710.607V232Z" fill="white"/>
</mask>
<g mask="url(#mask27_3032_3)">
<path d="M466.438 282.935C466.438 282.935 462.916 282.935 462.916 286.904V321.355C462.916 321.355 462.916 325.325 466.438 325.325H497.049C497.049 325.325 500.576 325.325 500.576 321.355V286.904C500.576 286.904 500.576 282.935 497.049 282.935H466.438Z" fill="#9AA0A6"/>
</g>
<mask id="mask28_3032_3" style="mask-type:luminance" maskUnits="userSpaceOnUse" x="90" y="232" width="621" height="336">
<path d="M710.607 232H90V567.02H710.607V232Z" fill="white"/>
</mask>
<g mask="url(#mask28_3032_3)">
<path d="M521.406 282.935C521.406 282.935 517.879 282.935 517.879 286.904V321.355C517.879 321.355 517.879 325.325 521.406 325.325H552.011C552.011 325.325 555.538 325.325 555.538 321.355V286.904C555.538 286.904 555.538 282.935 552.011 282.935H521.406Z" fill="#9AA0A6"/>
</g>
<mask id="mask29_3032_3" style="mask-type:luminance" maskUnits="userSpaceOnUse" x="90" y="232" width="621" height="336">
<path d="M710.607 232H90V567.02H710.607V232Z" fill="white"/>
</mask>
<g mask="url(#mask29_3032_3)">
<path d="M576.368 282.935C576.368 282.935 572.841 282.935 572.841 286.904V321.355C572.841 321.355 572.841 325.325 576.368 325.325H606.973C606.973 325.325 610.5 325.325 610.5 321.355V286.904C610.5 286.904 610.5 282.935 606.973 282.935H576.368Z" fill="#9AA0A6"/>
</g>
<mask id="mask30_3032_3" style="mask-type:luminance" maskUnits="userSpaceOnUse" x="90" y="232" width="621" height="336">
<path d="M710.607 232H90V567.02H710.607V232Z" fill="white"/>
</mask>
<g mask="url(#mask30_3032_3)">
<path d="M631.326 282.935C631.326 282.935 627.799 282.935 627.799 286.904V321.355C627.799 321.355 627.799 325.325 631.326 325.325H661.937C661.937 325.325 665.458 325.325 665.458 321.355V286.904C665.458 286.904 665.458 282.935 661.937 282.935H631.326Z" fill="#9AA0A6"/>
</g>
</svg>
