<svg width="800" height="800" viewBox="0 0 800 800" fill="none" xmlns="http://www.w3.org/2000/svg">
<path d="M686.719 368.75C686.719 351.094 672.5 336.875 654.844 336.875C637.188 336.875 622.969 351.094 622.969 368.75C622.969 478.125 522.969 567.031 400 567.031C277.031 567.031 177.031 478.125 177.031 368.75C177.031 351.094 162.813 336.875 145.156 336.875C127.5 336.875 113.281 351.094 113.281 368.75C113.281 503.437 225 614.688 368.125 629.219V719.063H331.25C313.594 719.063 299.375 733.281 299.375 750.938C299.375 768.594 313.594 782.812 331.25 782.812H468.75C486.406 782.812 500.625 768.594 500.625 750.938C500.625 733.281 486.406 719.063 468.75 719.063H431.875V629.219C575 614.688 686.719 503.437 686.719 368.75Z" fill="#9AA0A6"/>
<path d="M400 505.469C479.688 505.469 544.219 440.937 544.219 361.25V161.406C544.219 81.7188 479.688 17.1875 400 17.1875C320.313 17.1875 255.781 81.7188 255.781 161.406V361.25C255.781 440.937 320.313 505.469 400 505.469ZM318.281 161.406C318.281 116.406 355 79.6875 400 79.6875C445 79.6875 481.719 116.406 481.719 161.406V361.25C481.719 406.25 445 442.969 400 442.969C355 442.969 318.281 406.25 318.281 361.25V161.406Z" fill="#9AA0A6"/>
</svg>
