<svg width="800" height="800" viewBox="0 0 800 800" fill="none" xmlns="http://www.w3.org/2000/svg">
<path d="M703.369 286.863V593.811C703.335 606.252 698.378 618.174 689.581 626.971C680.784 635.768 668.862 640.725 656.421 640.758H143.579C131.138 640.725 119.216 635.768 110.419 626.971C101.622 618.174 96.6652 606.252 96.6318 593.811V286.863C96.6652 274.422 101.622 262.5 110.419 253.703C119.216 244.906 131.138 239.949 143.579 239.916H265.769V224.547C265.802 212.107 270.759 200.185 279.556 191.387C288.353 182.59 300.275 177.633 312.716 177.6H487.284C499.725 177.633 511.647 182.59 520.444 191.387C529.242 200.185 534.198 212.107 534.232 224.547V239.916H656.421C668.862 239.949 680.784 244.906 689.581 253.703C698.378 262.5 703.335 274.422 703.369 286.863ZM543.832 440.337C543.832 411.89 535.396 384.081 519.592 360.428C503.787 336.775 481.324 318.34 455.042 307.454C428.76 296.568 399.841 293.719 371.94 299.269C344.04 304.819 318.411 318.517 298.296 338.633C278.181 358.748 264.482 384.376 258.932 412.277C253.383 440.177 256.231 469.097 267.117 495.379C278.003 521.661 296.439 544.124 320.092 559.928C343.745 575.733 371.553 584.169 400 584.169C438.147 584.169 474.731 569.015 501.705 542.041C528.678 515.068 543.832 478.483 543.832 440.337ZM468.506 371.79C484.365 387.63 494.241 408.48 496.45 430.787C498.66 453.093 493.066 475.475 480.623 494.12C468.18 512.764 449.656 526.517 428.209 533.035C406.762 539.553 383.719 538.432 363.005 529.864C342.292 521.296 325.19 505.811 314.615 486.047C304.039 466.283 300.644 443.464 305.007 421.477C309.37 399.491 321.223 379.697 338.544 365.47C355.866 351.242 377.585 343.461 400 343.453C412.728 343.419 425.336 345.909 437.095 350.781C448.854 355.652 459.53 362.807 468.506 371.832V371.79ZM441.432 234.442C441.424 239.091 442.794 243.637 445.371 247.507C447.947 251.376 451.614 254.394 455.906 256.179C460.199 257.963 464.924 258.435 469.484 257.533C474.045 256.631 478.235 254.397 481.525 251.112C484.815 247.828 487.057 243.642 487.967 239.083C488.877 234.525 488.414 229.799 486.637 225.503C484.86 221.207 481.849 217.536 477.984 214.952C474.119 212.369 469.575 210.99 464.927 210.99C458.703 210.99 452.733 213.459 448.328 217.856C443.923 222.253 441.443 228.218 441.432 234.442Z" fill="#9AA0A6"/>
</svg>
